<?xml version="1.0" encoding="UTF-8"?>
<svg width="43px" height="42px" viewBox="0 0 43 42" version="1.1" xmlns="http://www.w3.org/2000/svg" xmlns:xlink="http://www.w3.org/1999/xlink">
    <title>E425ACBF-D256-4C13-AB5B-64C1A75B0E1C</title>
    <g id="Page-1" stroke="none" stroke-width="1" fill="none" fill-rule="evenodd">
        <g id="Desktop" transform="translate(-855.000000, -3228.000000)" fill="#5C63AB" fill-rule="nonzero">
            <g id="Group-9" transform="translate(855.000000, 3222.000000)">
                <g id="degressive-fees" transform="translate(0.000000, 6.000000)">
                    <g id="Group">
                        <path d="M21.4999981,7.24571705 C17.9760723,7.24571705 14.4521465,8.58702565 11.7695303,11.2696429 C6.4042959,16.6348763 6.4042959,25.3648568 11.7695303,30.7305804 C17.1357403,36.0958148 25.8652325,36.0953265 31.2304678,30.7305804 C36.5957022,25.3648577 36.5957022,16.6348772 31.2304678,11.2696428 C28.5478515,8.58702565 25.0239238,7.24571705 21.4999981,7.24571705 Z M14.6899395,14.1895637 C15.3237285,13.5552864 16.1669903,13.2061653 17.0639629,13.2061653 C17.9604473,13.2061653 18.803709,13.5552864 19.4374981,14.1895637 C20.7460918,15.4986458 20.7460918,17.6285286 19.4379864,18.9376107 L19.4374981,18.9376107 C18.803709,19.571888 17.9604473,19.9210091 17.0639629,19.9210091 C16.1669903,19.9210091 15.3237285,19.571888 14.6899395,18.9376107 C13.3808574,17.6285286 13.3808574,15.4986458 14.6899395,14.1895637 Z M16.3837871,27.5298958 C16.1884746,27.7252083 15.9326153,27.8228646 15.6767559,27.8228646 C15.4208965,27.8228646 15.1650371,27.7252083 14.9697246,27.5298958 C14.5790996,27.1392708 14.5790996,26.5064583 14.9697246,26.1158333 L26.616209,14.4698372 C27.006834,14.0792122 27.6396465,14.0792122 28.0302715,14.4698372 C28.4208965,14.8604622 28.4208965,15.4932747 28.0302715,15.8838997 L16.3837871,27.5298958 Z M28.2646465,27.7642708 L28.2641582,27.7642708 C27.6303692,28.3985481 26.7871074,28.7476692 25.8906231,28.7476692 C24.9936504,28.7476692 24.1503887,28.3985481 23.5165996,27.7642708 C22.2075176,26.4551888 22.2075176,24.325306 23.5165996,23.0162239 C24.1503887,22.3819465 24.9936504,22.0328255 25.8906231,22.0328255 C26.7871075,22.0328255 27.6303692,22.3819466 28.2641582,23.0162239 C29.5727539,24.325306 29.5727539,26.4551888 28.2646465,27.7642708 Z" id="Shape"></path>
                        <path d="M18.0234356,17.5235481 C18.5522442,16.9942512 18.5522442,16.1329231 18.0229473,15.6036262 C17.7587872,15.3389778 17.4111309,15.2066536 17.0639629,15.2066536 C16.7163067,15.2066536 16.3686504,15.3389778 16.104002,15.6036262 C15.5747051,16.1329231 15.5747051,16.9942512 16.104002,17.5235481 C16.6337872,18.0533333 17.494627,18.0523567 18.0234356,17.5235481 Z" id="Path"></path>
                        <path d="M25.8906231,24.0333138 C25.5429669,24.0333138 25.1953106,24.165638 24.9306622,24.4302864 C24.4013653,24.9595833 24.4013653,25.8209114 24.9306622,26.3502083 C25.4604473,26.8799934 26.3212872,26.8790169 26.8500958,26.3502083 C27.3789044,25.8209114 27.3789044,24.9595833 26.8496075,24.4302864 C26.5854473,24.165638 26.2377911,24.0333138 25.8906231,24.0333138 Z" id="Path"></path>
                        <path d="M41.8188477,21.3562508 C42.8900147,20.1205635 42.7158814,18.2414131 41.4359131,17.2235909 C40.4720154,16.4571114 40.1034546,15.1617623 40.5194702,14.0026741 L40.5194702,14.0026436 C41.0719299,12.463459 40.2307129,10.7740984 38.6694946,10.2873735 C37.4937744,9.92085745 36.6821899,8.8461504 36.6513977,7.61501025 C36.6105347,5.9801836 35.2158508,4.70879075 33.5842285,4.8189287 C32.3555298,4.9018755 31.2105103,4.1928911 30.7370606,3.05601975 C30.1083679,1.5463457 28.3486004,0.8646135 26.8669415,1.55672165 C25.7511578,2.07793135 24.4273358,1.83046435 23.5751934,0.9413957 C22.4436321,-0.23920755 20.5563946,-0.23920755 19.4248333,0.9413957 L19.4248028,0.9413957 C18.5726605,1.8304643 17.2488385,2.07793135 16.1330853,1.55672165 C14.6514263,0.8646135 12.8916302,1.54634565 12.262969,3.05601975 C11.7895193,4.1928911 10.6444998,4.90187545 9.4158011,4.8189287 L9.4157706,4.8189287 C7.7841483,4.70879075 6.38949495,5.9801836 6.3486014,7.61501025 C6.3178397,8.8461504 5.5062247,9.9208574 4.3305345,10.2873735 C2.7692857,10.7740984 1.9280992,12.463459 2.4805589,14.0026436 L2.4805589,14.0026741 C2.8965745,15.1617622 2.52801375,16.4571113 1.56411605,17.2235909 C0.2841175,18.2414131 0.1099842,20.1205635 1.18115095,21.3562508 L1.18118145,21.3562508 C1.98782205,22.2867928 2.11208965,23.6278267 1.4901414,24.6907234 C0.6642747,26.1022224 1.1807542,27.9173775 2.6259446,28.6826668 L2.6259751,28.6826973 C3.71429295,29.2589912 4.31460425,30.4645576 4.11862035,31.6803779 C3.85839695,33.2948799 4.99572655,34.8008918 6.6197805,34.9924506 L6.619811,34.9924506 C7.84283345,35.1367073 8.8380727,36.0439949 9.09457295,37.2484932 C9.4351491,38.8479804 11.0396718,39.8414802 12.623289,39.4333991 C13.8158244,39.1260871 15.0716533,39.6125983 15.7459087,40.6430855 L15.7459087,40.6431159 C16.6412944,42.0115546 18.4963664,42.3583259 19.8256206,41.4057197 C20.8266277,40.6883735 22.1733989,40.6883735 23.1743755,41.4057197 L23.174406,41.4057197 C24.5036296,42.3583259 26.3587321,42.0115546 27.2541179,40.6431159 L27.2541179,40.6430855 C27.9283732,39.6125984 29.1841735,39.1260872 30.3767394,39.4333991 C31.9603271,39.8414802 33.5648803,38.8479804 33.9054565,37.2484932 C34.1619262,36.0439949 35.157196,35.1367073 36.3802184,34.9924506 C38.0043029,34.8008918 39.1416015,33.2948799 38.8813781,31.6803779 C38.6854247,30.4645576 39.285736,29.2589912 40.3740539,28.6826973 L40.3740539,28.6826668 C41.8192748,27.9173775 42.3357543,26.1022224 41.5098571,24.6907234 C40.8879394,23.6278267 41.0122071,22.2867928 41.8188477,21.3562508 Z M32.6445312,32.1446419 C29.5717773,35.2169075 25.5361309,36.7530404 21.4999981,36.7530404 C17.4638653,36.7530404 13.4282208,35.2169076 10.3554678,32.1446419 C4.2104478,25.9991341 4.2104478,16.000599 10.3554678,9.8555794 C16.4999981,3.7100716 26.499999,3.7100716 32.6445303,9.8555794 C38.7895508,16.0005989 38.7895508,25.9991341 32.6445312,32.1446419 Z" id="Shape"></path>
                    </g>
                </g>
            </g>
        </g>
    </g>
</svg>