<svg xmlns="http://www.w3.org/2000/svg" width="46" height="44" viewBox="0 0 46 44">
    <g fill="none" fill-rule="evenodd" stroke="#26C7CA" stroke-width="3">
        <path d="M4.066 26.159c-.155-.932-.241-1.891-.241-2.866 0-7.382 4.655-13.672 11.191-16.104M31.95 36.52c-2.973 2.464-6.787 3.942-10.95 3.942-4.163 0-7.977-1.478-10.95-3.942M26.984 7.184c6.536 2.432 11.191 8.721 11.191 16.104 0 .974-.08 1.933-.241 2.866" transform="translate(2 2)"/>
        <path d="M27.08 6.118c0 .364-.032.723-.09 1.071-.504 2.845-2.995 5.01-5.985 5.01-2.989 0-5.48-2.16-5.984-5.01-.059-.348-.09-.707-.09-1.071 0-3.36 2.72-6.08 6.08-6.08 3.359 0 6.07 2.72 6.07 6.08zM41.138 34.913c-1.677 2.908-5.395 3.905-8.304 2.223-.316-.182-.61-.391-.884-.622-2.207-1.864-2.834-5.094-1.34-7.682 1.495-2.593 4.608-3.664 7.33-2.678.331.123.658.273.974.455 2.904 1.682 3.9 5.4 2.224 8.303zM10.05 36.52c-.268.23-.568.434-.884.621-2.909 1.677-6.627.68-8.303-2.223-1.677-2.904-.68-6.622 2.223-8.304.316-.182.643-.332.975-.455 2.716-.986 5.828.091 7.328 2.678 1.495 2.588.868 5.818-1.339 7.683z" transform="translate(2 2)"/>
    </g>
</svg>
