<svg xmlns="http://www.w3.org/2000/svg" width="43" height="51" viewBox="0 0 43 51">
    <g fill="none">
        <path fill="#0072FF" d="M6.96 26.354C2.857 23.93.091 19.348.091 14.094.092 6.312 6.166 0 13.659 0c7.059 0 12.859 5.602 13.506 12.76.313-.19.63-.378.953-.561 4.12-2.322 8.845-4.603 13.163-5.152 1.105-.14 1.48-.01 1.562.534.02.13-.024.664-.082 1.183-.428 3.61-2.485 8.442-3.999 11.632-1.793 3.769-3.807 6.78-6.538 9.734l-1.36 1.473-.068.54c-.173 1.457-.875 3.703-1.668 5.306-.957 1.942-1.962 3.415-3.538 5.162-2.26 2.506-5.197 4.608-8.793 6.295-1.11.524-1.385.559-1.702.23-.303-.315-.27-.63.13-1.263 1.442-2.287 2.764-5.217 3.057-6.8l.135-.719-.962.949c-1.01.988-5.364 3.195-5.725 3.12-.264-.055-4.75-4.673-4.894-5.032-.158-.415 2.01-5.022 3.105-6.16l.947-.994-.355.03c-1.356.1-3.904 1.208-6.298 2.736l-1.135.719c-.341.214-.735.194-.971-.05-.375-.39-.327-.58.755-2.86 1.16-2.457 2.522-4.616 4.075-6.458zm19.866-8.85c-.29 1.212-.73 2.362-1.3 3.427.032.534.15 1.065.347 1.516 1.106 2.537 4.221 3.345 6.337 1.638.49-.39 1.038-1.088 1.274-1.633.552-1.263.461-2.885-.236-4.038-.274-.454-.986-1.193-1.399-1.463-.851-.544-2.043-.744-3.072-.524-.725.153-1.403.539-1.951 1.077zM1.762 47.058s-.115-2.305 1.389-3.93c1.561-1.69 3.33-1.312 4.623-.266 1.293 1.044 1.64 3.109.598 4.19-1.041 1.081-2.861 1.29-4.135 1.94-1.273.651-2.5 1.284-2.5 1.284s.272-1.076.64-2.513c.543-2.109 1.794-2.4 1.794-2.4s-.8.048-1.312.386c-.618.408-1.097 1.309-1.097 1.309zm11.897-20.15c6.811 0 12.333-5.736 12.333-12.813 0-7.077-5.522-12.814-12.333-12.814-6.812 0-12.334 5.737-12.334 12.814S6.847 26.908 13.66 26.908z"/>
        <path fill="#FFC95C" d="M18.76 16.446c0 .943-.326 1.758-.977 2.445-.65.688-1.593 1.128-2.829 1.321v.869c0 .565-.44 1.022-.984 1.022-.543 0-.984-.457-.984-1.022v-.8c-.82-.058-1.596-.202-2.329-.435-.456-.145-.863-.311-1.221-.498-.345-.18-.494-.61-.337-.976l.016-.035.533-1.245c.126-.294.457-.426.74-.295.013.006.025.012.037.02l.08.042c.363.19.758.354 1.185.49.678.216 1.345.324 2.001.324 1.247 0 1.87-.324 1.87-.971 0-.34-.178-.594-.533-.758-.355-.165-.927-.338-1.714-.52-.864-.193-1.585-.4-2.165-.622-.58-.221-1.077-.576-1.492-1.065-.416-.488-.623-1.147-.623-1.976 0-.977.338-1.815 1.016-2.514.678-.698 1.657-1.127 2.936-1.286v-.852c0-.565.44-1.023.984-1.023s.984.458.984 1.023v.818c.623.056 1.222.17 1.796.34.405.12.778.266 1.12.437l.097.05c.18.097.26.32.182.516l-.745 1.863c-.061.155-.232.228-.38.164l-.02-.01c-.054-.028-.1-.052-.139-.07-.946-.467-1.867-.7-2.764-.7-.645 0-1.115.1-1.41.298-.295.199-.443.457-.443.775s.175.557.525.716c.35.159.913.324 1.69.494.874.193 1.598.4 2.172.622.574.221 1.072.574 1.493 1.056.42.483.631 1.14.631 1.968z"/>
    </g>
</svg>
